<?xml version="1.0" encoding="UTF-8" standalone="no"?>
<!DOCTYPE svg PUBLIC "-//W3C//DTD SVG 1.1//EN" "http://www.w3.org/Graphics/SVG/1.1/DTD/svg11.dtd">
<svg xmlns="http://www.w3.org/2000/svg" version="1.1" viewBox="0.00 0.00 289.00 310.00">
<g stroke-width="2.00" fill="none" stroke-linecap="butt">
<path stroke="#ffc8a6" vector-effect="non-scaling-stroke" d="
  M 143.75 236.58
  A 0.60 0.60 0.0 0 0 143.45 236.07
  L 64.80 190.33
  A 0.60 0.60 0.0 0 1 64.50 189.81
  L 64.49 96.62
  A 0.60 0.60 0.0 0 1 64.79 96.11
  L 143.47 50.28
  A 0.60 0.60 0.0 0 0 143.77 49.76
  L 143.76 16.20
  A 0.60 0.60 0.0 0 0 142.86 15.68
  L 34.67 78.60
  A 0.60 0.60 0.0 0 0 34.37 79.12
  L 34.38 207.27
  A 0.60 0.60 0.0 0 0 34.68 207.78
  L 142.89 270.76
  A 0.60 0.60 0.0 0 0 143.79 270.25
  L 143.75 236.58"
/>
<path stroke="#808080" vector-effect="non-scaling-stroke" d="
  M 225.70 189.91
  A 0.59 0.59 0.0 0 1 225.41 190.42
  L 146.74 236.20
  A 0.59 0.59 0.0 0 0 146.45 236.71
  L 146.42 270.15
  A 0.59 0.59 0.0 0 0 147.31 270.66
  L 255.33 207.81
  A 0.59 0.59 0.0 0 0 255.62 207.30
  L 255.62 79.11
  A 0.59 0.59 0.0 0 0 255.33 78.60
  L 147.32 15.73
  A 0.59 0.59 0.0 0 0 146.43 16.24
  L 146.43 49.72
  A 0.59 0.59 0.0 0 0 146.72 50.23
  L 225.39 95.99
  A 0.59 0.59 0.0 0 1 225.68 96.50
  L 225.70 189.91"
/>
<path stroke="#ffc8a6" vector-effect="non-scaling-stroke" d="
  M 146.09 54.79
  A 0.76 0.76 0.0 0 0 144.95 55.45
  L 144.95 109.97
  A 0.76 0.76 0.0 0 0 146.09 110.63
  L 193.80 83.37
  A 0.76 0.76 0.0 0 0 193.80 82.05
  L 146.09 54.79"
/>
<path stroke="#808080" vector-effect="non-scaling-stroke" d="
  M 142.88 110.49
  A 0.71 0.71 0.0 0 0 143.94 109.87
  L 143.94 56.51
  A 0.71 0.71 0.0 0 0 142.88 55.89
  L 96.12 82.57
  A 0.71 0.71 0.0 0 0 96.12 83.81
  L 142.88 110.49"
/>
</g>
<path fill="#ffffff" d="
  M 0.00 0.00
  L 289.00 0.00
  L 289.00 310.00
  L 0.00 310.00
  L 0.00 0.00
  Z
  M 143.75 236.58
  A 0.60 0.60 0.0 0 0 143.45 236.07
  L 64.80 190.33
  A 0.60 0.60 0.0 0 1 64.50 189.81
  L 64.49 96.62
  A 0.60 0.60 0.0 0 1 64.79 96.11
  L 143.47 50.28
  A 0.60 0.60 0.0 0 0 143.77 49.76
  L 143.76 16.20
  A 0.60 0.60 0.0 0 0 142.86 15.68
  L 34.67 78.60
  A 0.60 0.60 0.0 0 0 34.37 79.12
  L 34.38 207.27
  A 0.60 0.60 0.0 0 0 34.68 207.78
  L 142.89 270.76
  A 0.60 0.60 0.0 0 0 143.79 270.25
  L 143.75 236.58
  Z
  M 225.70 189.91
  A 0.59 0.59 0.0 0 1 225.41 190.42
  L 146.74 236.20
  A 0.59 0.59 0.0 0 0 146.45 236.71
  L 146.42 270.15
  A 0.59 0.59 0.0 0 0 147.31 270.66
  L 255.33 207.81
  A 0.59 0.59 0.0 0 0 255.62 207.30
  L 255.62 79.11
  A 0.59 0.59 0.0 0 0 255.33 78.60
  L 147.32 15.73
  A 0.59 0.59 0.0 0 0 146.43 16.24
  L 146.43 49.72
  A 0.59 0.59 0.0 0 0 146.72 50.23
  L 225.39 95.99
  A 0.59 0.59 0.0 0 1 225.68 96.50
  L 225.70 189.91
  Z
  M 146.09 54.79
  A 0.76 0.76 0.0 0 0 144.95 55.45
  L 144.95 109.97
  A 0.76 0.76 0.0 0 0 146.09 110.63
  L 193.80 83.37
  A 0.76 0.76 0.0 0 0 193.80 82.05
  L 146.09 54.79
  Z
  M 142.88 110.49
  A 0.71 0.71 0.0 0 0 143.94 109.87
  L 143.94 56.51
  A 0.71 0.71 0.0 0 0 142.88 55.89
  L 96.12 82.57
  A 0.71 0.71 0.0 0 0 96.12 83.81
  L 142.88 110.49
  Z"
/>
<path fill="#ff914d" d="
  M 143.75 236.58
  L 143.79 270.25
  A 0.60 0.60 0.0 0 1 142.89 270.76
  L 34.68 207.78
  A 0.60 0.60 0.0 0 1 34.38 207.27
  L 34.37 79.12
  A 0.60 0.60 0.0 0 1 34.67 78.60
  L 142.86 15.68
  A 0.60 0.60 0.0 0 1 143.76 16.20
  L 143.77 49.76
  A 0.60 0.60 0.0 0 1 143.47 50.28
  L 64.79 96.11
  A 0.60 0.60 0.0 0 0 64.49 96.62
  L 64.50 189.81
  A 0.60 0.60 0.0 0 0 64.80 190.33
  L 143.45 236.07
  A 0.60 0.60 0.0 0 1 143.75 236.58
  Z"
/>
<path fill="#000000" d="
  M 225.70 189.91
  L 225.68 96.50
  A 0.59 0.59 0.0 0 0 225.39 95.99
  L 146.72 50.23
  A 0.59 0.59 0.0 0 1 146.43 49.72
  L 146.43 16.24
  A 0.59 0.59 0.0 0 1 147.32 15.73
  L 255.33 78.60
  A 0.59 0.59 0.0 0 1 255.62 79.11
  L 255.62 207.30
  A 0.59 0.59 0.0 0 1 255.33 207.81
  L 147.31 270.66
  A 0.59 0.59 0.0 0 1 146.42 270.15
  L 146.45 236.71
  A 0.59 0.59 0.0 0 1 146.74 236.20
  L 225.41 190.42
  A 0.59 0.59 0.0 0 0 225.70 189.91
  Z"
/>
<path fill="#ff914d" d="
  M 146.09 54.79
  L 193.80 82.05
  A 0.76 0.76 0.0 0 1 193.80 83.37
  L 146.09 110.63
  A 0.76 0.76 0.0 0 1 144.95 109.97
  L 144.95 55.45
  A 0.76 0.76 0.0 0 1 146.09 54.79
  Z"
/>
<path fill="#000000" d="
  M 142.88 110.49
  L 96.12 83.81
  A 0.71 0.71 0.0 0 1 96.12 82.57
  L 142.88 55.89
  A 0.71 0.71 0.0 0 1 143.94 56.51
  L 143.94 109.87
  A 0.71 0.71 0.0 0 1 142.88 110.49
  Z"
/>
</svg>
